<svg width="1852" height="537" viewBox="0 0 1852 537" fill="none" xmlns="http://www.w3.org/2000/svg">
<path fill-rule="evenodd" clip-rule="evenodd" d="M440.785 511.632C427.116 511.632 416 500.505 416 486.828C416 473.168 427.116 462.041 440.785 462.041C448.314 462.041 455.351 465.424 460.081 471.331L465.557 478.195L466.375 469.457C468.829 442.96 490.731 423 517.312 423C537.884 423 556.385 435.239 564.432 454.204L566.165 458.278L569.76 455.67C575.043 451.872 581.265 449.862 587.731 449.862C604.749 449.862 618.587 463.706 618.587 480.753C618.587 497.785 604.749 511.632 587.731 511.632H440.785Z" fill="#CCE5F2"/>
<path fill-rule="evenodd" clip-rule="evenodd" d="M58.1124 368C26.0625 368 0 342.013 0 310.07C0 278.167 26.0625 252.18 58.1124 252.18C75.765 252.18 92.2648 260.081 103.356 273.877L116.194 289.907L118.114 269.501C123.868 207.616 175.221 161 237.543 161C285.778 161 329.158 189.585 348.024 233.876L352.087 243.393L360.517 237.3C372.903 228.432 387.494 223.737 402.653 223.737C442.554 223.737 475 256.07 475 295.884C475 335.662 442.554 368 402.653 368H58.1124Z" fill="#CCE5F2"/>
<path fill-rule="evenodd" clip-rule="evenodd" d="M1079.75 332C1063.89 332 1051 319.069 1051 303.175C1051 287.301 1063.89 274.37 1079.75 274.37C1088.48 274.37 1096.65 278.301 1102.13 285.166L1108.49 293.142L1109.44 282.989C1112.28 252.195 1137.69 229 1168.52 229C1192.38 229 1213.85 243.224 1223.18 265.262L1225.19 269.997L1229.36 266.966C1235.49 262.553 1242.71 260.217 1250.21 260.217C1269.95 260.217 1286 276.305 1286 296.116C1286 315.909 1269.95 332 1250.21 332H1079.75Z" fill="#CCE5F2"/>
<path fill-rule="evenodd" clip-rule="evenodd" d="M1641.15 209C1670.3 209 1694 182.762 1694 150.51C1694 118.299 1670.3 92.061 1641.15 92.061C1625.09 92.061 1610.09 100.038 1600 113.968L1588.32 130.153L1586.58 109.55C1581.35 47.066 1534.64 0 1477.96 0C1434.09 0 1394.64 28.8614 1377.48 73.5803L1373.79 83.1889L1366.12 77.0371C1354.85 68.0831 1341.58 63.3428 1327.8 63.3428C1291.51 63.3428 1262 95.9883 1262 136.187C1262 176.349 1291.51 209 1327.8 209H1641.15Z" fill="#CCE5F2"/>
<path fill-rule="evenodd" clip-rule="evenodd" d="M854.148 209C883.297 209 907 182.762 907 150.51C907 118.299 883.297 92.061 854.148 92.061C838.094 92.061 823.088 100.038 813 113.968L801.324 130.153L799.578 109.55C794.346 47.066 747.641 0 690.961 0C647.092 0 607.64 28.8614 590.481 73.5803L586.786 83.1889L579.119 77.0371C567.854 68.0831 554.585 63.3428 540.798 63.3428C504.509 63.3428 475 95.9883 475 136.187C475 176.349 504.509 209 540.798 209H854.148Z" fill="#CCE5F2"/>
<path fill-rule="evenodd" clip-rule="evenodd" d="M1513.17 536.4C1487.15 536.4 1466 515.259 1466 489.272C1466 463.319 1487.15 442.178 1513.17 442.178C1527.5 442.178 1540.89 448.605 1549.89 459.829L1560.31 472.87L1561.87 456.269C1566.54 405.923 1608.22 368 1658.81 368C1697.96 368 1733.17 391.255 1748.48 427.287L1751.78 435.029L1758.62 430.072C1768.68 422.858 1780.52 419.038 1792.83 419.038C1825.21 419.038 1851.55 445.342 1851.55 477.731C1851.55 510.092 1825.21 536.4 1792.83 536.4H1513.17Z" fill="#CCE5F2"/>
</svg>
