<svg width="175" height="56" viewBox="0 0 175 56" fill="none" xmlns="http://www.w3.org/2000/svg">
<path d="M137.626 15.8051C137.537 6.82139 122.68 5.54117 119.415 5.36697V26.2487C122.675 26.0772 137.545 24.797 137.626 15.8023V15.8051ZM123.275 22.0043V9.61409C127.845 10.3441 133.702 12.0971 133.769 15.8216C133.676 19.5296 127.833 21.2743 123.275 22.0043Z" fill="#03607D"/>
<path d="M37.2037 15.4788C35.4804 18.5065 34.4944 22.1343 34.271 26.2763H52.7053V5.41674C51.2222 5.62136 47.4627 6.34304 43.7507 8.67951C40.9856 10.4187 38.7846 12.7082 37.2065 15.4788H37.2037ZM48.8453 10.3773V22.455H38.6561C39.6644 17.8899 41.9827 14.4032 45.5885 12.0501C46.6918 11.3312 47.809 10.7865 48.8481 10.3773H48.8453Z" fill="#03607D"/>
<path d="M160.381 8.67951C156.669 6.34304 152.907 5.62136 151.426 5.41674V26.2763H169.861C169.635 22.1343 168.651 18.5093 166.925 15.4788C165.347 12.7082 163.146 10.4187 160.381 8.67951ZM155.284 22.455V10.3773C156.32 10.7865 157.44 11.3312 158.543 12.0501C162.149 14.4032 164.467 17.8899 165.473 22.455H155.284Z" fill="#03607D"/>
<path d="M31.0701 0.30139H0V4.11993H31.0701V0.30139Z" fill="#03607D"/>
<path d="M76.0498 8.67951C72.3378 6.34304 68.5783 5.62136 67.0952 5.41674V37.4941H70.9524V10.3773C71.9887 10.7865 73.1087 11.3312 74.212 12.0501C79.1948 15.3018 81.7225 20.7186 81.7225 28.1566V37.4941H85.5798V28.1566C85.5798 23.2237 84.5743 18.9572 82.594 15.4788C81.0159 12.7082 78.8149 10.4187 76.0498 8.67951Z" fill="#03607D"/>
<path d="M89.8364 15.4788C87.8561 18.9572 86.8506 23.2237 86.8506 28.1566V37.4941H90.7079V28.1566C90.7079 20.7213 93.2356 15.3018 98.2184 12.0501C99.3217 11.3312 100.439 10.7865 101.478 10.3773V37.4941H105.335V5.41674C103.852 5.62136 100.093 6.34304 96.3806 8.67951C93.6154 10.4187 91.4145 12.7082 89.8364 15.4788Z" fill="#03607D"/>
<path d="M142.55 17.818C142.667 17.1212 142.715 16.4687 142.723 15.8852V15.7332C142.681 12.028 141.095 8.73481 138.131 6.20755C137.316 5.51075 136.389 4.87479 135.364 4.29137C133.755 3.3789 131.897 2.61021 129.803 1.99084C124.412 0.403698 119.097 0.301393 118.873 0.298628L114.326 0.226738V37.4914H118.183V4.10887L118.809 4.11993C119.01 4.11993 123.811 4.21394 128.699 5.65454C135.277 7.59284 138.785 11.0768 138.86 15.7332H138.863V15.888H138.86C138.785 20.5444 135.277 24.0283 128.699 25.9666C124.761 27.128 120.881 27.41 119.418 27.4791V37.4969H123.275V30.9631C125.169 30.7198 127.476 30.3133 129.8 29.6276C139.187 26.8625 141.908 21.6559 142.55 17.8208V17.818Z" fill="#03607D"/>
<path d="M34.2207 28.1565V37.4941H38.078V31.317H48.8453V37.4941H52.7025V27.4985H34.2263C34.2235 27.7169 34.2179 27.9353 34.2179 28.1565H34.2207Z" fill="#03607D"/>
<path d="M105.662 0.309684C105.042 0.348394 99.4278 0.804627 93.6992 4.3909C91.1799 5.96975 88.4343 8.29239 86.2138 11.6658C83.9933 8.29239 81.2477 5.96975 78.7283 4.3909C77.6502 3.71623 76.5749 3.15216 75.5387 2.67933C74.5332 2.2231 73.5612 1.85258 72.6506 1.55396C69.5224 0.525358 67.1566 0.334569 66.7656 0.309684L61.9978 0.00276254V37.4941H65.8551V4.07845L66.5115 4.11993C66.7181 4.13375 71.6563 4.48491 76.6615 7.61772C79.611 9.46478 81.9599 11.898 83.647 14.8483C84.834 16.9249 85.6887 19.2614 86.2082 21.8329C86.7277 19.2614 87.5824 16.9249 88.7695 14.8483C90.4565 11.898 92.8054 9.46478 95.7549 7.61772C100.76 4.48491 105.698 4.13375 105.905 4.11993L106.561 4.07845V37.4941H110.419V0.00276254L105.654 0.309684H105.662Z" fill="#03607D"/>
<path d="M52.8086 0.326279C52.7081 0.334574 52.5852 0.348399 52.4372 0.364989H52.4232C52.4036 0.364989 52.3841 0.370516 52.3645 0.370516C50.6021 0.57513 45.879 1.377 41.0694 4.38814C36.5474 7.21956 31.3104 12.451 29.6569 21.8384C29.3189 23.7656 29.1262 25.8616 29.1262 28.1538V37.4914H32.9834V28.1538C32.9834 22.9942 34.0476 18.5148 36.1452 14.8456C37.8322 11.8953 40.1812 9.46202 43.1306 7.61496C48.1358 4.48216 53.074 4.13099 53.2807 4.11717L53.937 4.07569V37.4914H57.7943V0L53.0293 0.306921C52.9818 0.306921 52.9064 0.315216 52.8058 0.323511H52.8086V0.326279Z" fill="#03607D"/>
<path d="M151.424 27.4985V37.4941H155.281V31.317H166.048V37.4941H169.905V28.1565C169.905 27.9353 169.9 27.7169 169.897 27.4985H151.421H151.424Z" fill="#03607D"/>
<path d="M163.06 4.3909C157.331 0.804627 151.72 0.35116 151.097 0.309684L146.332 0.00276254V37.4941H150.189V4.07845L150.846 4.11993C151.052 4.13375 155.99 4.48491 160.996 7.61772C163.945 9.46478 166.294 11.898 167.981 14.8483C170.079 18.5176 171.143 22.997 171.143 28.1565V37.4941H175V28.1565C175 14.6935 168.506 7.80298 163.057 4.3909H163.06Z" fill="#03607D"/>
<path d="M31.0701 5.34208H16.1523V37.4941H20.0096V9.16339H31.0701V5.34208Z" fill="#03607D"/>
<path d="M0 9.16339H11.0578V37.4941H14.9178V5.34208H0V9.16339Z" fill="#03607D"/>
<path d="M9.00055 49.7762C9.5323 50.03 9.95327 50.3941 10.2635 50.8686C10.5847 51.3432 10.7454 51.8894 10.7454 52.5074C10.7454 53.4343 10.4186 54.2123 9.76494 54.8413C9.11133 55.4703 8.31371 55.7848 7.37207 55.7848H2.35367V44.1979H7.00649C7.91489 44.1979 8.68483 44.5013 9.31628 45.1083C9.94773 45.7152 10.2635 46.4656 10.2635 47.3594C10.2635 48.3857 9.84249 49.1913 9.00055 49.7762ZM7.00649 45.638H3.89907V49.1803H7.00649C7.49393 49.1803 7.90382 49.0092 8.23616 48.6671C8.5685 48.325 8.73468 47.9057 8.73468 47.4091C8.73468 46.9236 8.56297 46.5097 8.21954 46.1676C7.8872 45.8145 7.48285 45.638 7.00649 45.638ZM7.37207 54.3447C7.89274 54.3447 8.33033 54.1626 8.68483 53.7985C9.03933 53.4343 9.21658 52.9874 9.21658 52.4577C9.21658 51.9391 9.03379 51.4976 8.66821 51.1335C8.31371 50.7693 7.88166 50.5872 7.37207 50.5872H3.89907V54.3447H7.37207Z" fill="#03607D"/>
<path d="M38.1843 55.7848L37.2371 53.186H32.0027L31.0555 55.7848H29.4104L33.7475 44.1979H35.4923L39.8294 55.7848H38.1843ZM32.5344 51.7459H36.7053L34.6116 46.0352L32.5344 51.7459Z" fill="#03607D"/>
<path d="M63.369 44.1979C64.4435 44.1979 65.3353 44.5565 66.0443 45.2738C66.7644 45.9801 67.1244 46.8629 67.1244 47.9222C67.1244 48.9706 66.7644 49.8534 66.0443 50.5707C65.3353 51.288 64.4435 51.6466 63.369 51.6466H60.6936V55.7848H59.1482V44.1979H63.369ZM63.369 50.2065C64.0115 50.2065 64.5432 49.9913 64.9642 49.561C65.3852 49.1196 65.5957 48.5733 65.5957 47.9222C65.5957 47.2601 65.3852 46.7139 64.9642 46.2835C64.5432 45.8531 64.0115 45.638 63.369 45.638H60.6936V50.2065H63.369Z" fill="#03607D"/>
<path d="M94.0487 44.1979V45.6545H90.609V55.7848H89.0802V45.6545H85.657V44.1979H94.0487Z" fill="#03607D"/>
<path d="M113.525 44.1979H115.07V55.7848H113.525V44.1979Z" fill="#03607D"/>
<path d="M139.089 56C138.003 56 137.073 55.7462 136.297 55.2386C135.533 54.731 134.996 54.0357 134.685 53.1529L136.015 52.3915C136.469 53.793 137.505 54.4937 139.122 54.4937C139.92 54.4937 140.529 54.3337 140.95 54.0137C141.371 53.6826 141.582 53.2467 141.582 52.706C141.582 52.1542 141.371 51.7404 140.95 51.4645C140.529 51.1887 139.826 50.8962 138.84 50.5872C138.352 50.4327 137.981 50.3114 137.726 50.2231C137.472 50.1238 137.15 49.9803 136.763 49.7927C136.386 49.5941 136.103 49.3954 135.915 49.1968C135.727 48.9871 135.555 48.7168 135.4 48.3857C135.256 48.0547 135.184 47.6795 135.184 47.2601C135.184 46.2559 135.538 45.4614 136.247 44.8765C136.956 44.2806 137.821 43.9827 138.84 43.9827C139.759 43.9827 140.557 44.2144 141.233 44.6779C141.92 45.1414 142.435 45.7538 142.778 46.5153L141.482 47.2601C140.983 46.0683 140.103 45.4724 138.84 45.4724C138.208 45.4724 137.699 45.6269 137.311 45.9359C136.923 46.2449 136.729 46.6642 136.729 47.1939C136.729 47.7015 136.912 48.0878 137.278 48.3526C137.643 48.6175 138.275 48.8933 139.172 49.1803C139.493 49.2796 139.72 49.3513 139.853 49.3954C139.986 49.4396 140.191 49.5168 140.468 49.6272C140.756 49.7375 140.967 49.8258 141.1 49.892C141.233 49.9582 141.41 50.052 141.631 50.1734C141.864 50.2948 142.036 50.4107 142.147 50.521C142.257 50.6314 142.385 50.7693 142.529 50.9349C142.684 51.0893 142.795 51.2494 142.861 51.4149C142.928 51.5804 142.983 51.7735 143.027 51.9942C143.083 52.2039 143.11 52.4301 143.11 52.6729C143.11 53.6881 142.739 54.4992 141.997 55.1062C141.255 55.7021 140.285 56 139.089 56Z" fill="#03607D"/>
<path d="M173.69 44.1979V55.7848H172.161V46.7304L168.356 53.0371H168.157L164.351 46.747V55.7848H162.806V44.1979H164.551L168.256 50.3224L171.945 44.1979H173.69Z" fill="#03607D"/>
</svg>
