<svg width="148" height="50" viewBox="0 0 148 50" fill="none" xmlns="http://www.w3.org/2000/svg">
<path d="M116.011 15.2664C115.936 7.67526 103.509 6.59349 100.777 6.44629V24.0911C103.504 23.9463 115.943 22.8645 116.011 15.264V15.2664ZM104.006 20.5047V10.0351C107.829 10.6519 112.728 12.1332 112.784 15.2804C112.707 18.4136 107.819 19.8879 104.006 20.5047Z" fill="#03607D"/>
<path d="M32.006 14.9906C30.5644 17.549 29.7397 20.6145 29.5527 24.1144H44.9733V6.48828C43.7326 6.66118 40.5878 7.27099 37.4826 9.24529C35.1696 10.7149 33.3284 12.6495 32.0083 14.9906H32.006ZM41.7443 10.6799V20.8855H33.221C34.0644 17.028 36.0037 14.0817 39.02 12.0934C39.9429 11.4859 40.8775 11.0257 41.7467 10.6799H41.7443Z" fill="#03607D"/>
<path d="M135.045 9.24529C131.94 7.27099 128.793 6.66118 127.555 6.48828V24.1144H142.975C142.786 20.6145 141.964 17.5514 140.52 14.9906C139.2 12.6495 137.358 10.7149 135.045 9.24529ZM130.781 20.8855V10.6799C131.648 11.0257 132.585 11.4859 133.508 12.0934C136.524 14.0817 138.464 17.028 139.305 20.8855H130.781Z" fill="#03607D"/>
<path d="M26.8754 2.16602H0.884766V5.39265H26.8754V2.16602Z" fill="#03607D"/>
<path d="M64.5024 9.24529C61.3972 7.27099 58.2524 6.66118 57.0117 6.48828V33.5934H60.2384V10.6799C61.1052 11.0257 62.0421 11.4859 62.965 12.0934C67.1332 14.8411 69.2477 19.4182 69.2477 25.7032V33.5934H72.4743V25.7032C72.4743 21.535 71.6332 17.9299 69.9767 14.9906C68.6566 12.6495 66.8155 10.7149 64.5024 9.24529Z" fill="#03607D"/>
<path d="M76.0328 14.9906C74.3763 17.9299 73.5352 21.535 73.5352 25.7032V33.5934H76.7618V25.7032C76.7618 19.4205 78.8763 14.8411 83.0445 12.0934C83.9674 11.4859 84.902 11.0257 85.7711 10.6799V33.5934H88.9978V6.48828C87.7571 6.66118 84.6123 7.27099 81.5071 9.24529C79.194 10.7149 77.3529 12.6495 76.0328 14.9906Z" fill="#03607D"/>
<path d="M120.129 16.968C120.227 16.3792 120.267 15.8278 120.274 15.3348V15.2063C120.239 12.0755 118.912 9.29277 116.433 7.15725C115.751 6.56847 114.975 6.03109 114.118 5.53809C112.772 4.76707 111.218 4.11753 109.466 3.59417C104.956 2.25305 100.51 2.1666 100.323 2.16426L96.5195 2.10352V33.5918H99.7462V5.38389L100.27 5.39324C100.438 5.39324 104.454 5.47267 108.543 6.68996C114.045 8.32781 116.98 11.2717 117.043 15.2063H117.045V15.3372H117.043C116.98 19.2717 114.045 22.2157 108.543 23.8535C105.249 24.8348 102.003 25.0731 100.779 25.1316V33.5965H104.006V28.0755C105.59 27.8699 107.52 27.5264 109.463 26.947C117.316 24.6105 119.592 20.211 120.129 16.9703V16.968Z" fill="#03607D"/>
<path d="M29.5101 25.7035V33.5937H32.7368V28.3741H41.7438V33.5937H44.9704V25.1475H29.5148C29.5125 25.332 29.5078 25.5166 29.5078 25.7035H29.5101Z" fill="#03607D"/>
<path d="M89.2737 2.17243C88.7551 2.20514 84.0588 2.59065 79.2667 5.62103C77.1593 6.95514 74.8625 8.91776 73.0051 11.7682C71.1476 8.91776 68.8508 6.95514 66.7434 5.62103C65.8415 5.05094 64.942 4.5743 64.0752 4.17477C63.234 3.78925 62.4209 3.47617 61.6593 3.22383C59.0424 2.35467 57.0635 2.19346 56.7364 2.17243L55.0261 2.06028L52.748 1.91309V33.593H55.9747V5.35701L56.5237 5.39206C56.6966 5.40374 60.8275 5.70047 65.0144 8.34766C67.4817 9.90841 69.4466 11.9645 70.8579 14.4575C71.8509 16.2121 72.5658 18.1865 73.0004 20.3593C73.435 18.1865 74.1499 16.2121 75.1429 14.4575C76.5541 11.9645 78.5191 9.90841 80.9864 8.34766C85.1733 5.70047 89.3041 5.40374 89.477 5.39206L90.0261 5.35701V33.593H93.2527V1.91309L89.2667 2.17243H89.2737Z" fill="#03607D"/>
<path d="M45.0588 2.18586C44.9747 2.19287 44.8719 2.20455 44.748 2.21857H44.7364C44.72 2.21857 44.7037 2.22324 44.6873 2.22324C43.213 2.39614 39.2621 3.07371 35.2387 5.6181C31.456 8.01063 27.0752 12.4312 25.692 20.3634C25.4093 21.9919 25.248 23.763 25.248 25.6999V33.5901H28.4747V25.6999C28.4747 21.3401 29.3649 17.555 31.1195 14.4546C32.5308 11.9616 34.4957 9.90549 36.963 8.34474C41.1499 5.69754 45.2808 5.40081 45.4537 5.38913L46.0027 5.35408V33.5901H49.2294V1.91016L45.2434 2.1695C45.2037 2.1695 45.1406 2.17651 45.0565 2.18352H45.0588V2.18586Z" fill="#03607D"/>
<path d="M127.553 25.1475V33.5937H130.78V28.3741H139.787V33.5937H143.013V25.7035C143.013 25.5166 143.009 25.332 143.006 25.1475H127.551H127.553Z" fill="#03607D"/>
<path d="M137.286 5.62103C132.494 2.59065 127.8 2.20748 127.279 2.17243L123.293 1.91309V33.593H126.52V5.35701L127.069 5.39206C127.242 5.40374 131.372 5.70047 135.559 8.34766C138.027 9.90841 139.992 11.9645 141.403 14.4575C143.157 17.5579 144.048 21.343 144.048 25.7028V33.593H147.274V25.7028C147.274 14.3266 141.842 8.50421 137.284 5.62103H137.286Z" fill="#03607D"/>
<path d="M26.8755 6.4248H14.3965V33.593H17.6231V9.65377H26.8755V6.4248Z" fill="#03607D"/>
<path d="M0.884766 9.65377H10.1348V33.593H13.3637V6.4248H0.884766V9.65377Z" fill="#03607D"/>
<path d="M40.4773 0L40.4727 0.00467033L40.4773 0.00233517V0Z" fill="#2A6783"/>
<g opacity="0.69">
<path d="M14.9252 38.9098L11.8431 49.8892H10.629L7.88941 40.5277L5.08755 49.8892L3.90455 49.9049L0.884766 38.9098H2.05221L4.54275 48.5384L7.32904 38.9098H8.54318L11.2516 48.5384L13.7577 38.9098H14.9252Z" fill="#03607D"/>
<path d="M29.1225 47.2818H24.1725L23.223 49.8892H22.0711L26.0404 39.0512H27.2701L31.2239 49.8892H30.072L29.1225 47.2818ZM28.7956 46.3708L26.6475 40.4334L24.4994 46.3708H28.7956Z" fill="#03607D"/>
<path d="M40.2886 48.9939H44.1956V49.8892H39.199V38.9098H40.2886V48.9939Z" fill="#03607D"/>
<path d="M53.0666 48.9939H56.9736V49.8892H51.977V38.9098H53.0666V48.9939Z" fill="#03607D"/>
<path d="M71.7129 42.067C71.7129 43.0094 71.4068 43.7686 70.7945 44.3445C70.1823 44.9205 69.2639 45.2084 68.0394 45.2084H65.8446V49.8892H64.755V38.9098H68.0394C69.2535 38.9098 70.1667 39.1978 70.779 39.7737C71.4016 40.3497 71.7129 41.1141 71.7129 42.067ZM68.0394 44.266C69.7412 44.266 70.5922 43.533 70.5922 42.067C70.5922 41.334 70.3898 40.779 69.9851 40.402C69.5804 40.025 68.9318 39.8366 68.0394 39.8366H65.8446V44.266H68.0394Z" fill="#03607D"/>
<path d="M86.0717 47.2818H81.1217L80.1722 49.8892H79.0204L82.9897 39.0512H84.2194L88.1731 49.8892H87.0212L86.0717 47.2818ZM85.7448 46.3708L83.5967 40.4334L81.4486 46.3708H85.7448Z" fill="#03607D"/>
<path d="M103.106 42.067C103.106 43.0094 102.8 43.7686 102.188 44.3445C101.575 44.9205 100.657 45.2084 99.4326 45.2084H97.2378V49.8892H96.1482V38.9098H99.4326C100.647 38.9098 101.56 39.1978 102.172 39.7737C102.795 40.3497 103.106 41.1141 103.106 42.067ZM99.4326 44.266C101.134 44.266 101.985 43.533 101.985 42.067C101.985 41.334 101.783 40.779 101.378 40.402C100.974 40.025 100.325 39.8366 99.4326 39.8366H97.2378V44.266H99.4326Z" fill="#03607D"/>
<path d="M112.25 39.8051V43.9047H116.375V44.8158H112.25V48.9782H116.842V49.8892H111.161V38.8941H116.842V39.8051H112.25Z" fill="#03607D"/>
<path d="M131.006 49.8892L128.313 45.3027H126.305V49.8892H125.216V38.9098H128.484C129.699 38.9098 130.617 39.203 131.24 39.7894C131.873 40.3758 132.189 41.1455 132.189 42.0984C132.189 42.8942 131.961 43.5749 131.504 44.1403C131.058 44.6953 130.394 45.0566 129.512 45.2241L132.314 49.8892H131.006ZM126.305 44.4074H128.5C129.351 44.4074 129.989 44.1979 130.415 43.7791C130.85 43.3602 131.068 42.8 131.068 42.0984C131.068 41.3759 130.861 40.8209 130.446 40.4334C130.031 40.0355 129.377 39.8366 128.484 39.8366H126.305V44.4074Z" fill="#03607D"/>
<path d="M143.878 49.9991C143.162 49.9991 142.529 49.8735 141.979 49.6222C141.439 49.3708 141.014 49.02 140.702 48.5698C140.391 48.1195 140.225 47.6169 140.204 47.0619H141.356C141.408 47.5959 141.641 48.0671 142.057 48.4755C142.472 48.8734 143.079 49.0724 143.878 49.0724C144.615 49.0724 145.196 48.8839 145.621 48.5069C146.057 48.1195 146.275 47.6326 146.275 47.0462C146.275 46.575 146.156 46.198 145.917 45.9153C145.678 45.6221 145.382 45.4074 145.03 45.2713C144.677 45.1247 144.189 44.9676 143.566 44.8C142.84 44.6011 142.264 44.4074 141.839 44.2189C141.413 44.0304 141.05 43.7372 140.749 43.3393C140.448 42.9414 140.298 42.4021 140.298 41.7214C140.298 41.156 140.443 40.6533 140.733 40.2135C141.024 39.7633 141.434 39.4125 141.963 39.1612C142.492 38.9098 143.099 38.7842 143.784 38.7842C144.791 38.7842 145.6 39.0355 146.213 39.5381C146.835 40.0303 147.193 40.669 147.287 41.4544H146.104C146.031 41.0041 145.787 40.6062 145.372 40.2607C144.957 39.9046 144.397 39.7266 143.691 39.7266C143.037 39.7266 142.492 39.9046 142.057 40.2607C141.621 40.6062 141.403 41.0827 141.403 41.69C141.403 42.1508 141.522 42.5225 141.761 42.8052C141.999 43.088 142.295 43.3026 142.648 43.4492C143.011 43.5958 143.499 43.7529 144.111 43.9204C144.817 44.1194 145.388 44.3184 145.824 44.5173C146.259 44.7058 146.628 44.999 146.929 45.3969C147.23 45.7948 147.38 46.3289 147.38 46.9991C147.38 47.5122 147.245 47.9991 146.975 48.4598C146.706 48.9206 146.306 49.2923 145.777 49.575C145.248 49.8578 144.615 49.9991 143.878 49.9991Z" fill="#03607D"/>
</g>
</svg>
